<svg width="30" height="26" viewBox="0 0 30 26" fill="none" xmlns="http://www.w3.org/2000/svg">
<path d="M2.72727 3.61111V1.43433C2.72977 1.05499 2.87305 0.691914 3.12615 0.423537C3.37926 0.155159 3.72188 0.00302561 4.08 0H28.6473C29.3945 0 30 0.642778 30 1.43433V24.5657C29.9975 24.945 29.8542 25.3081 29.6011 25.5765C29.348 25.8448 29.0054 25.997 28.6473 26H4.08C3.72111 25.9996 3.37704 25.8483 3.12339 25.5794C2.86975 25.3104 2.72727 24.9458 2.72727 24.5657V23.1111H27.2727V6.21111L16.3636 16.6111L2.72727 3.61111ZM0 10.1111H6.81818V13H0V10.1111ZM0 17.3333H10.9091V20.2222H0V17.3333Z" fill="white"/>
</svg>
